<svg fill="none" height="24" viewBox="0 0 137 24" width="137" xmlns="http://www.w3.org/2000/svg" xmlns:xlink="http://www.w3.org/1999/xlink"><clipPath id="a"><path d="m0 0h137v24h-137z"/></clipPath><g clip-path="url(#a)"><path d="m40.732 9.813h-.019l-2.557 7.173h-.762l-2.477-7.173h-.03l-1.004 7.024h-2.213l1.9-11.618h1.549l2.786 7.455 2.663-7.455h1.588l1.69 11.618h-2.204zm11.608 3.346c0 2.283-1.548 3.917-3.857 3.917-2.31 0-3.861-1.634-3.861-3.918 0-2.283 1.573-3.932 3.86-3.932 2.289 0 3.858 1.637 3.858 3.932zm-5.594 0c0 .99.66 2.056 1.737 2.056s1.737-1.066 1.737-2.056c0-.991-.66-2.072-1.737-2.072-1.078 0-1.737 1.053-1.737 2.072zm9.05-3.016h.03a2.191 2.191 0 0 1 1.914-.917c1.975 0 2.545 1.395 2.545 3.106v4.505h-2.095v-3.902c0-.885.047-2.028-1.136-2.028-1.239 0-1.257 1.395-1.257 2.283v3.647h-2.078v-7.372h2.093l-.015.678zm8.049 3.345c0 .932.356 1.982 1.449 1.982.687 0 1.124-.42 1.405-1.007l1.932.31a3.391 3.391 0 0 1 -1.288 1.705 3.373 3.373 0 0 1 -2.05.591c-2.272 0-3.662-1.621-3.662-3.858 0-2.236 1.18-3.992 3.56-3.992 2.381 0 3.483 1.787 3.483 4.008v.255l-4.83.006zm2.854-1.305c-.102-.752-.582-1.485-1.39-1.485s-1.303.72-1.406 1.485h2.797zm2.304-2.718h2.378l1.753 4.19 1.885-4.19h2.335l-5.344 11.305h-2.304l2.424-5.055z" fill="#000"/><g fill="#e2750f"><path d="m83.933 7.44v2.485h3.185v1.923h-3.185v4.97h-2.203v-11.301h5.595v1.923h-3.393zm11.517 5.719c0 2.283-1.548 3.917-3.858 3.917s-3.86-1.634-3.86-3.918c0-2.283 1.569-3.932 3.86-3.932s3.858 1.637 3.858 3.932zm-5.595 0c0 .99.66 2.056 1.737 2.056 1.078 0 1.734-1.066 1.734-2.056 0-.991-.656-2.072-1.734-2.072-1.077 0-1.737 1.053-1.737 2.072zm9.066-2.926h.031a2.099 2.099 0 0 1 1.824-1.007c.298.006.593.067.87.18l-.257 1.951a1.486 1.486 0 0 0 -.867-.27c-1.452 0-1.601 1.292-1.601 2.432v3.318h-2.096v-7.372h2.096zm15.065.617-2.892 6.136h-1.062l-1.573-4.49-1.749 4.49h-1.077l-3.381-7.52h2.288l1.622 3.891 1.7-4.131h1.164l1.66 4.06 1.436-3.147s1.821-4.56 6.041-4.576l.411 1.768s-2.935-.205-4.588 3.52z"/><path d="m122.297 16.837h-2.066v-.677h-.027a2.548 2.548 0 0 1 -1.991.916c-2.168 0-3.381-1.966-3.381-3.96 0-1.995 1.238-3.89 3.35-3.89a2.7 2.7 0 0 1 2.049.932v-.693h2.066zm-1.858-3.694c0-.99-.672-2.056-1.749-2.056-1.078 0-1.737 1.065-1.737 2.056s.659 2.072 1.737 2.072c1.077 0 1.752-1.08 1.752-2.072zm5.836-2.91h.031a2.105 2.105 0 0 1 1.824-1.007c.297.006.591.067.867.18l-.254 1.951a1.486 1.486 0 0 0 -.867-.27c-1.449 0-1.601 1.292-1.601 2.432v3.318h-2.096v-7.372h2.096zm8.632 5.911h-.031a2.454 2.454 0 0 1 -1.973.932c-2.167 0-3.384-1.966-3.384-3.96 0-1.995 1.239-3.89 3.353-3.89a2.573 2.573 0 0 1 2.004.916h.031v-4.624h2.096v11.32h-2.093l-.003-.693zm.207-3c0-.992-.656-2.057-1.734-2.057-1.077 0-1.737 1.065-1.737 2.056s.66 2.072 1.737 2.072c1.078 0 1.734-1.08 1.734-2.072zm-117.284 1.975a1.804 1.804 0 0 1 -1.547-.777l-2.022-2.901-1.563 4.585a1.824 1.824 0 0 1 -1.416 1.208 1.812 1.812 0 0 1 -1.733-.67l-1.375-1.754-1.003 3.222a1.815 1.815 0 0 1 -3.292.263 1.832 1.832 0 0 1 -.182-1.338l2.028-6.524a1.827 1.827 0 0 1 1.407-1.252 1.815 1.815 0 0 1 1.76.665l1.446 1.846 1.642-4.812a1.824 1.824 0 0 1 1.457-1.235 1.812 1.812 0 0 1 1.754.75l2.477 3.56 3.35-5.48a11.812 11.812 0 0 0 -15.839-2.215 11.883 11.883 0 0 0 -4.827 7.115 11.916 11.916 0 0 0 1.228 8.518 11.851 11.851 0 0 0 6.637 5.452c2.814.921 5.87.752 8.565-.474a11.864 11.864 0 0 0 5.999-6.152c1.163-2.73 1.265-5.8.285-8.602l-3.749 6.132a1.818 1.818 0 0 1 -1.486.87zm9.091-12.761a2.372 2.372 0 0 1 -1.456 2.186 2.352 2.352 0 0 1 -2.571-.513 2.37 2.37 0 0 1 1.668-4.04c.626 0 1.226.249 1.668.693a2.37 2.37 0 0 1 .691 1.674z"/></g></g></svg>